<?xml version="1.0" standalone="no"?>
<!DOCTYPE svg PUBLIC "-//W3C//DTD SVG 20010904//EN"
 "http://www.w3.org/TR/2001/REC-SVG-20010904/DTD/svg10.dtd">
<svg version="1.0" xmlns="http://www.w3.org/2000/svg"
 width="2800.000000pt" height="2800.000000pt" viewBox="0 0 2800.000000 2800.000000"
 preserveAspectRatio="xMidYMid meet">

<g transform="translate(0.000000,2800.000000) scale(0.100000,-0.100000)"
fill="#000000" stroke="none">
<path d="M16678 21581 c-11 -25 -36 -84 -55 -131 -19 -47 -41 -98 -48 -115
-34 -76 -76 -177 -104 -248 -18 -43 -41 -97 -52 -118 l-20 -40 33 -27 c83 -70
70 -75 121 46 25 59 57 136 72 172 14 36 34 83 44 105 11 22 31 69 46 105 32
76 42 101 83 195 16 39 28 72 26 74 -1 2 -31 9 -64 16 l-62 13 -20 -47z"/>
<path d="M17062 21516 c-10 -17 -24 -47 -32 -66 -7 -19 -76 -181 -153 -360
-76 -179 -155 -362 -174 -406 l-34 -82 44 -68 c74 -114 95 -165 104 -245 l8
-74 49 115 c27 63 59 138 71 165 13 28 53 122 90 209 37 88 71 166 75 175 23
41 252 603 248 607 -3 2 -66 17 -141 33 l-136 29 -19 -32z"/>
<path d="M17603 21413 c-7 -23 -58 -141 -94 -221 -16 -35 -29 -65 -29 -67 0
-6 -142 -338 -175 -411 -14 -30 -25 -57 -25 -59 0 -2 -11 -28 -24 -57 -14 -29
-59 -136 -101 -238 -93 -223 -158 -377 -191 -448 -13 -29 -24 -54 -24 -57 0
-2 -15 -37 -34 -78 -19 -41 -41 -96 -49 -123 -16 -55 -102 -754 -95 -775 4
-12 30 44 117 256 21 50 45 106 54 125 17 39 161 389 214 520 18 47 38 94 43
105 9 20 95 220 248 580 45 105 121 287 170 405 49 118 118 281 152 363 35 81
61 149 58 152 -4 4 -191 45 -204 45 -3 0 -7 -8 -11 -17z"/>
<path d="M18005 21168 c-37 -90 -81 -194 -97 -233 -16 -38 -37 -88 -47 -110
-26 -56 -322 -751 -366 -860 -45 -109 -120 -284 -145 -340 -10 -22 -65 -150
-123 -285 -58 -135 -138 -319 -177 -410 -40 -91 -96 -221 -125 -290 -29 -69
-85 -201 -124 -294 -40 -92 -71 -169 -69 -171 4 -4 126 -36 177 -46 25 -5 48
-6 51 -2 14 17 358 829 535 1263 79 194 180 434 250 595 8 17 28 64 45 105 17
41 38 89 46 107 8 17 14 34 14 37 0 5 60 149 162 386 22 52 47 111 55 130 8
19 25 60 38 90 72 166 186 442 183 444 -2 2 -41 11 -88 20 -47 10 -94 20 -106
23 -18 4 -28 -14 -89 -159z"/>
<path d="M18407 21218 c-8 -18 -43 -100 -77 -183 -34 -82 -68 -163 -75 -180
-8 -16 -34 -79 -60 -140 -25 -60 -50 -119 -55 -130 -23 -49 -175 -407 -202
-475 -16 -41 -42 -104 -58 -140 -16 -36 -59 -137 -96 -225 -37 -88 -77 -182
-89 -210 -13 -27 -56 -126 -95 -220 -40 -93 -87 -204 -105 -245 -18 -41 -40
-93 -50 -115 -9 -22 -32 -74 -50 -115 -29 -67 -71 -167 -167 -395 -16 -38 -33
-79 -38 -90 -42 -92 -108 -260 -105 -265 3 -4 24 -12 47 -18 226 -58 292 -72
298 -65 4 4 23 46 42 93 74 181 335 807 436 1045 58 138 123 293 144 345 22
52 47 113 57 135 10 22 56 130 101 240 45 110 88 214 95 230 33 74 108 253
165 390 34 83 68 164 75 180 22 48 182 426 200 473 10 24 16 44 14 46 -4 4
-315 66 -328 66 -5 0 -16 -15 -24 -32z"/>
<path d="M18881 21128 c-26 -69 -163 -399 -194 -469 -8 -19 -50 -117 -92 -219
-43 -102 -100 -237 -128 -300 -27 -63 -66 -155 -87 -205 -142 -340 -273 -654
-286 -684 -9 -20 -23 -52 -31 -71 -14 -33 -121 -282 -250 -585 -30 -71 -64
-149 -74 -172 -11 -23 -34 -79 -53 -125 -19 -46 -57 -137 -85 -202 -28 -66
-49 -121 -47 -123 5 -5 106 -32 166 -44 30 -6 62 -14 70 -19 8 -4 38 -11 65
-14 l51 -7 34 83 c18 46 134 324 258 618 123 294 284 679 357 855 140 337 288
690 310 740 14 31 31 73 106 250 23 55 57 136 76 180 19 44 49 118 68 165 19
47 52 127 74 179 23 52 41 100 41 108 0 7 -10 15 -22 18 -13 2 -84 18 -157 35
-74 16 -141 30 -148 30 -8 0 -17 -10 -22 -22z"/>
<path d="M19364 21034 c-7 -20 -57 -139 -79 -189 -7 -16 -25 -59 -39 -95 -15
-36 -31 -74 -36 -85 -5 -11 -48 -114 -96 -230 -48 -115 -94 -228 -104 -250
-10 -22 -45 -105 -78 -185 -80 -192 -180 -428 -197 -465 -17 -36 -82 -192
-140 -335 -24 -58 -68 -163 -98 -235 -30 -71 -91 -215 -135 -320 -44 -104 -87
-206 -95 -225 -61 -134 -228 -536 -230 -552 -2 -18 15 -25 168 -63 184 -46
185 -46 199 12 3 12 45 113 92 225 142 335 308 732 461 1103 80 193 158 379
173 415 15 36 68 162 118 280 49 118 100 238 112 265 22 51 77 182 155 375 62
154 144 351 160 385 38 86 44 106 32 110 -7 2 -75 17 -152 34 -77 17 -150 34
-162 37 -17 5 -25 1 -29 -12z"/>
<path d="M19802 20818 c-80 -192 -171 -408 -187 -442 -8 -17 -29 -69 -48 -116
-32 -81 -94 -230 -122 -295 -7 -16 -41 -97 -75 -180 -67 -163 -174 -416 -295
-700 -43 -99 -83 -196 -90 -215 -8 -19 -73 -177 -145 -350 -73 -173 -154 -367
-180 -430 -26 -63 -71 -169 -99 -234 -28 -65 -48 -122 -46 -126 3 -4 17 -10
32 -13 16 -2 73 -17 128 -32 141 -39 135 -40 162 30 12 33 27 69 32 80 6 11
23 52 39 90 16 39 50 120 75 180 25 61 76 182 113 270 37 88 75 178 85 200 10
22 43 103 74 180 52 128 76 186 185 450 75 182 221 531 230 550 5 11 20 47 34
80 13 33 46 109 72 170 25 60 52 126 60 145 7 19 27 69 44 110 18 41 60 145
95 230 34 85 72 175 83 200 35 79 92 223 90 225 -5 5 -212 54 -254 61 l-41 6
-51 -124z"/>
<path d="M20326 20798 c-85 -207 -161 -391 -177 -425 -11 -24 -24 -55 -30 -70
-5 -15 -45 -110 -89 -212 -43 -102 -126 -301 -183 -441 -111 -271 -286 -689
-421 -1010 -46 -107 -101 -240 -124 -295 -22 -55 -94 -226 -158 -380 -148
-355 -148 -354 -143 -359 10 -10 295 -74 301 -68 3 4 15 30 26 57 11 28 61
149 112 270 51 121 119 283 150 360 60 145 304 736 396 955 28 69 81 195 117
280 35 85 95 229 131 320 37 91 71 174 76 185 5 11 21 49 36 85 14 36 32 79
39 95 78 176 255 617 251 624 -3 5 -18 11 -33 14 -16 2 -72 14 -127 26 -130
28 -134 27 -150 -11z"/>
<path d="M20821 20692 c-10 -20 -40 -91 -66 -157 -26 -66 -53 -133 -61 -150
-13 -29 -127 -302 -224 -535 -26 -63 -69 -164 -94 -225 -26 -60 -74 -175 -106
-255 -84 -206 -312 -756 -470 -1130 -76 -182 -197 -475 -276 -669 -19 -47 -31
-88 -27 -91 5 -4 35 -14 68 -23 172 -45 220 -56 227 -49 12 12 159 360 268
637 15 39 46 113 68 165 22 52 99 239 172 415 73 176 145 349 160 385 29 67
57 135 165 400 34 85 101 247 148 360 46 113 101 246 122 295 20 50 43 104 50
120 8 17 55 129 105 249 64 155 87 222 79 227 -7 4 -60 17 -118 29 -58 12
-121 25 -139 30 -31 8 -33 6 -51 -28z"/>
<path d="M21280 20493 c-29 -71 -60 -146 -70 -168 -10 -22 -27 -67 -39 -100
-22 -59 -28 -73 -77 -185 -13 -30 -118 -282 -233 -560 -271 -655 -296 -715
-346 -840 -53 -131 -168 -407 -369 -889 -86 -206 -155 -382 -154 -390 2 -10
20 -19 43 -25 22 -4 63 -15 90 -23 94 -29 165 -41 173 -29 7 11 56 129 177
426 118 292 157 385 185 450 15 36 65 155 110 265 45 110 88 214 96 230 7 17
56 136 108 265 90 223 172 423 308 750 211 509 358 873 354 877 -3 3 -292 73
-301 73 -2 0 -26 -57 -55 -127z"/>
<path d="M16492 15078 c-7 -7 -12 -16 -12 -21 0 -6 -18 -38 -40 -73 -22 -35
-40 -66 -40 -69 0 -3 -25 -50 -57 -103 -31 -53 -79 -140 -107 -192 -60 -111
-99 -175 -142 -233 -16 -23 -55 -90 -86 -148 l-56 -106 -57 -324 c-31 -178
-65 -373 -75 -434 -83 -486 -101 -592 -105 -605 -3 -8 -9 -44 -14 -80 -6 -36
-30 -182 -55 -325 -25 -143 -44 -260 -43 -261 18 -10 92 -34 108 -34 31 0 33
-24 4 -85 -14 -31 -41 -98 -61 -148 -19 -51 -39 -101 -44 -112 -56 -126 -122
-295 -118 -306 2 -6 48 -25 103 -44 55 -18 122 -42 148 -54 26 -12 83 -33 126
-46 42 -12 98 -32 122 -43 25 -11 76 -32 114 -47 l69 -26 17 23 c10 12 17 25
16 28 -2 9 15 74 24 90 11 19 68 170 102 270 15 41 36 100 48 130 12 30 27 81
35 114 12 55 20 80 49 151 7 17 27 73 44 125 18 52 38 109 46 125 7 17 27 71
44 120 17 50 45 128 62 175 17 47 35 103 39 125 5 22 24 83 44 135 20 52 36
100 36 105 0 6 14 44 31 85 47 113 139 382 134 391 -3 4 0 9 5 11 9 3 32 60
83 208 2 8 12 44 20 80 9 36 27 94 40 130 14 36 44 115 66 175 78 205 92 255
71 255 -5 0 -10 7 -10 16 0 9 -5 12 -11 8 -7 -4 -2 12 11 34 24 43 21 70 -5
36 -13 -17 -14 -4 -15 119 0 130 1 137 20 137 17 0 20 7 20 40 0 33 -3 40 -20
40 -16 0 -20 7 -20 36 0 27 5 37 20 41 11 3 20 9 20 13 0 5 -9 12 -20 15 -28
9 -25 20 13 44 31 20 32 21 7 22 -14 1 -45 2 -70 2 -42 0 -42 0 -7 4 20 2 37
8 37 12 0 4 24 2 53 -6 89 -25 121 -32 125 -28 4 4 -189 65 -207 65 -6 0 -19
4 -29 9 -42 22 -123 52 -192 71 -41 12 -111 35 -155 51 -44 15 -105 36 -135
45 -47 13 -132 43 -150 52 -3 1 -11 -3 -18 -10z m552 -187 c4 -5 -3 -7 -14 -4
-23 6 -26 13 -6 13 8 0 17 -4 20 -9z m175 -713 c0 -13 -4 -32 -9 -43 -8 -19
-8 -19 -17 5 -6 13 -8 32 -5 42 6 26 32 22 31 -4z m-68 -195 c-16 -34 -20 -39
-16 -18 3 17 9 43 12 58 4 20 9 25 16 18 7 -7 3 -25 -12 -58z m-24 15 c-3 -7
-5 -2 -5 12 0 14 2 19 5 13 2 -7 2 -19 0 -25z m3 -84 c0 -8 -5 -12 -10 -9 -6
4 -8 11 -5 16 9 14 15 11 15 -7z m-20 -44 c0 -20 -5 -30 -15 -30 -8 0 -16 -10
-17 -22 -1 -13 -2 -30 -3 -38 0 -8 -6 -24 -13 -35 -9 -16 -10 -10 -5 35 3 30
12 58 18 62 7 4 16 19 19 33 9 34 16 32 16 -5z m-80 -274 c0 -3 -4 -8 -10 -11
-5 -3 -10 -1 -10 4 0 6 5 11 10 11 6 0 10 -2 10 -4z m-33 -68 c-3 -7 -5 -2 -5
12 0 14 2 19 5 13 2 -7 2 -19 0 -25z m-30 0 c-3 -8 -6 -5 -6 6 -1 11 2 17 5
13 3 -3 4 -12 1 -19z m-662 -100 c-30 -87 -82 -217 -105 -263 -6 -11 -21 -49
-34 -85 -13 -36 -49 -128 -80 -204 -31 -77 -56 -145 -56 -153 0 -7 -3 -13 -7
-13 -17 0 -113 34 -113 41 0 12 62 143 76 159 7 8 33 58 60 110 26 52 50 97
54 100 3 3 16 26 29 52 12 26 34 62 49 81 15 19 54 87 87 151 33 64 63 116 66
116 4 0 -8 -42 -26 -92z m598 -130 c6 -4 8 -10 4 -15 -11 -10 -27 17 -26 42
l1 20 5 -20 c3 -11 10 -23 16 -27z m-76 -250 c-3 -8 -6 -5 -6 6 -1 11 2 17 5
13 3 -3 4 -12 1 -19z"/>
<path d="M17405 14770 c27 -12 35 -12 35 0 0 6 -12 10 -27 9 -25 0 -26 -1 -8
-9z"/>
<path d="M17360 14750 c0 -5 5 -10 10 -10 6 0 10 5 10 10 0 6 -4 10 -10 10 -5
0 -10 -4 -10 -10z"/>
<path d="M17275 14710 c-3 -5 0 -10 8 -10 21 0 38 -46 27 -74 -5 -13 -6 -27
-2 -31 4 -4 0 -5 -8 -3 -23 5 -25 -39 -1 -51 14 -8 22 -8 26 -1 5 8 11 8 20 0
10 -8 16 1 29 39 20 61 20 91 0 36 -8 -22 -16 -46 -19 -53 -4 -10 -9 -10 -26
-1 -12 6 -17 14 -12 18 5 3 13 22 17 41 10 55 -36 127 -59 90z"/>
<path d="M17343 14700 c-1 -11 4 -20 12 -20 8 0 11 7 8 20 -3 11 -8 20 -12 20
-4 0 -7 -9 -8 -20z"/>
<path d="M17406 14705 c-9 -26 -7 -32 5 -12 6 10 9 21 6 23 -2 3 -7 -2 -11
-11z"/>
<path d="M17283 14501 c1 -14 9 -26 17 -28 10 -3 11 -2 4 4 -7 4 -14 17 -17
28 -5 16 -5 15 -4 -4z"/>
<path d="M17326 14454 c-10 -38 0 -41 12 -5 6 17 7 31 3 31 -5 0 -12 -12 -15
-26z"/>
<path d="M17281 14453 c-1 -6 -4 -20 -7 -30 -5 -17 -5 -17 6 0 6 10 9 23 6 30
-3 9 -5 9 -5 0z"/>
<path d="M17293 14376 l-2 -41 15 28 c12 23 13 30 2 41 -12 11 -14 7 -15 -28z"/>
<path d="M17280 14323 c0 -5 -12 -23 -26 -38 -14 -15 -23 -34 -20 -41 8 -22
25 -16 19 6 -4 13 0 20 10 20 15 0 33 47 22 58 -3 3 -5 1 -5 -5z"/>
<path d="M17381 13544 c0 -11 3 -14 6 -6 3 7 2 16 -1 19 -3 4 -6 -2 -5 -13z"/>
<path d="M17336 13463 c-6 -14 -5 -15 5 -6 7 7 10 15 7 18 -3 3 -9 -2 -12 -12z"/>
<path d="M17307 13404 c-4 -4 -7 -14 -7 -23 0 -11 3 -12 11 -4 6 6 10 16 7 23
-2 6 -7 8 -11 4z"/>
<path d="M17262 13305 c-6 -14 -7 -25 -2 -25 9 0 25 39 18 46 -3 2 -10 -7 -16
-21z"/>
<path d="M17230 13234 c0 -8 5 -12 10 -9 6 3 10 10 10 16 0 5 -4 9 -10 9 -5 0
-10 -7 -10 -16z"/>
<path d="M17187 13148 c-3 -12 -3 -28 1 -35 5 -8 8 0 9 22 1 40 -2 44 -10 13z"/>
<path d="M17152 13069 c-7 -12 -11 -24 -8 -27 6 -6 35 27 36 41 0 14 -15 7
-28 -14z"/>
<path d="M17110 12917 c0 -19 -20 -23 -20 -4 -1 6 -7 1 -15 -13 -8 -14 -14
-34 -14 -45 1 -16 2 -15 8 5 5 15 14 24 23 22 16 -3 35 34 24 45 -3 4 -6 -1
-6 -10z"/>
<path d="M17037 12826 c-4 -10 -5 -21 -2 -24 9 -9 17 6 13 25 -3 17 -4 17 -11
-1z"/>
<path d="M17070 12815 c0 -8 5 -15 10 -15 6 0 10 7 10 15 0 8 -4 15 -10 15 -5
0 -10 -7 -10 -15z"/>
<path d="M17002 12746 c-12 -20 -22 -42 -22 -47 0 -5 -7 -21 -16 -34 -9 -13
-13 -28 -10 -34 3 -5 2 -11 -3 -13 -5 -1 -32 -52 -61 -113 -28 -60 -56 -120
-62 -132 -6 -12 -8 -29 -4 -38 4 -13 2 -16 -9 -11 -8 3 -15 0 -15 -6 0 -6 -13
-37 -30 -70 -16 -32 -30 -65 -30 -73 0 -8 -4 -15 -10 -15 -5 0 -10 -5 -10 -11
0 -5 -13 -37 -30 -71 -16 -33 -30 -66 -30 -73 0 -7 -3 -15 -8 -17 -9 -4 -72
-146 -72 -163 0 -8 -4 -15 -9 -17 -7 -3 -111 -211 -111 -223 0 -3 -21 -49 -46
-102 -108 -227 -142 -302 -148 -320 -6 -17 5 -26 68 -57 41 -20 81 -36 88 -36
7 0 25 -6 40 -14 14 -8 46 -17 70 -21 24 -4 77 -24 119 -45 41 -20 93 -40 115
-43 l39 -7 -39 15 c-21 8 -45 20 -53 26 -7 6 -27 14 -45 18 -51 11 -46 29 7
21 45 -7 65 5 23 13 -21 4 -21 4 2 6 24 1 25 4 22 41 -4 35 -2 40 17 40 20 0
21 5 21 80 0 73 -2 80 -20 80 -17 0 -20 7 -20 40 0 33 3 40 20 40 17 0 20 7
20 40 0 33 3 40 20 40 19 0 20 7 20 120 0 113 1 120 20 120 18 0 20 7 20 80 0
73 2 80 20 80 19 0 20 7 20 240 0 153 4 240 10 240 6 0 10 6 10 14 0 7 7 27
15 42 8 16 15 23 15 16 0 -10 5 -9 17 3 13 13 14 18 3 25 -9 6 -11 21 -6 54 5
30 4 46 -3 46 -6 0 -11 -9 -11 -20 0 -11 -5 -20 -11 -20 -7 0 -8 7 -4 18 3 9
9 29 12 44 6 33 33 60 33 34 0 -9 5 -16 10 -16 6 0 10 16 10 35 0 24 5 35 14
35 23 0 29 20 12 39 -17 19 -22 51 -7 51 5 0 12 -8 16 -17 7 -17 8 -16 15 2
12 28 12 43 0 25 -5 -8 -12 -11 -16 -7 -4 3 -1 13 6 21 6 9 10 21 8 27 -2 7
-14 -4 -26 -25z m-12 -96 c0 -5 -7 -10 -16 -10 -8 0 -12 5 -9 10 3 6 10 10 16
10 5 0 9 -4 9 -10z m-93 -192 c-3 -8 -6 -5 -6 6 -1 11 2 17 5 13 3 -3 4 -12 1
-19z m-28 -74 c-7 -18 -13 -24 -16 -16 -3 8 1 25 8 39 17 32 23 15 8 -23z m-5
-49 c3 -8 1 -15 -4 -15 -6 0 -10 7 -10 15 0 8 2 15 4 15 2 0 6 -7 10 -15z
m-64 -100 c0 -12 -35 -75 -41 -75 -4 0 0 18 8 40 9 22 20 40 25 40 4 0 8 -2 8
-5z m-320 -1155 c0 -5 -4 -10 -9 -10 -6 0 -13 5 -16 10 -3 6 1 10 9 10 9 0 16
-4 16 -10z"/>
<path d="M17357 12063 c-4 -3 -7 -11 -7 -17 0 -6 5 -5 12 2 6 6 9 14 7 17 -3
3 -9 2 -12 -2z"/>
<path d="M17331 12004 c0 -11 3 -14 6 -6 3 7 2 16 -1 19 -3 4 -6 -2 -5 -13z"/>
<path d="M17301 11614 c0 -11 3 -14 6 -6 3 7 2 16 -1 19 -3 4 -6 -2 -5 -13z"/>
<path d="M17137 11583 c-4 -3 -7 -11 -7 -17 0 -6 5 -5 12 2 6 6 9 14 7 17 -3
3 -9 2 -12 -2z"/>
<path d="M17091 11484 c0 -11 3 -14 6 -6 3 7 2 16 -1 19 -3 4 -6 -2 -5 -13z"/>
<path d="M17050 11405 c0 -8 2 -15 4 -15 2 0 6 7 10 15 3 8 1 15 -4 15 -6 0
-10 -7 -10 -15z"/>
<path d="M17232 11380 c0 -14 2 -19 5 -12 2 6 2 18 0 25 -3 6 -5 1 -5 -13z"/>
<path d="M16970 11303 c0 -6 -3 -20 -6 -30 -5 -15 -4 -15 5 -3 5 8 13 11 17 7
4 -4 2 -13 -4 -19 -7 -7 -12 -19 -12 -27 1 -9 7 -4 16 12 13 24 13 30 -1 49
-8 13 -15 17 -15 11z"/>
<path d="M16882 11175 c0 -16 2 -22 5 -12 2 9 2 23 0 30 -3 6 -5 -1 -5 -18z"/>
<path d="M16950 11178 c0 -19 2 -20 10 -8 13 19 13 30 0 30 -5 0 -10 -10 -10
-22z"/>
<path d="M16912 11099 c-26 -67 -23 -95 3 -33 17 40 30 94 24 94 -2 0 -15 -28
-27 -61z"/>
<path d="M17181 11134 c0 -11 3 -14 6 -6 3 7 2 16 -1 19 -3 4 -6 -2 -5 -13z"/>
<path d="M16816 11025 c-3 -8 -13 -15 -21 -15 -15 0 -15 -2 -1 -15 8 -8 21
-12 29 -9 10 3 17 -2 20 -13 4 -16 5 -16 6 0 0 9 8 17 16 17 8 0 15 7 15 17 0
15 -2 15 -19 -1 -21 -19 -35 -8 -25 18 3 9 2 16 -4 16 -5 0 -12 -7 -16 -15z"/>
<path d="M17146 11004 c-4 -9 -4 -19 -1 -22 2 -3 7 3 11 12 4 9 4 19 1 22 -2
3 -7 -3 -11 -12z"/>
<path d="M16810 10946 c0 -15 27 -29 34 -18 3 5 -4 13 -15 20 -15 10 -19 10
-19 -2z"/>
<path d="M17650 10616 c0 -2 9 -6 20 -9 11 -3 18 -1 14 4 -5 9 -34 13 -34 5z"/>
<path d="M4240 5331 c-53 -12 -76 -22 -78 -33 -2 -9 -11 -18 -20 -21 -13 -2
-8 -9 19 -25 20 -12 41 -33 47 -47 7 -16 26 -28 54 -37 63 -19 111 -45 96 -52
-7 -3 8 -3 35 0 42 5 47 3 47 -15 0 -14 9 -22 33 -27 17 -4 36 -7 41 -5 5 1 6
-7 3 -19 -5 -18 -2 -19 34 -14 32 5 45 2 73 -20 19 -14 43 -26 53 -26 11 0 28
-7 39 -15 10 -8 29 -15 42 -15 13 0 20 -4 17 -10 -3 -6 4 -9 17 -8 13 1 58
-13 102 -30 43 -18 88 -33 100 -33 15 -1 13 -3 -9 -8 -29 -7 -28 -7 13 -12 30
-3 42 -1 42 8 0 7 5 13 12 13 6 0 8 -3 5 -7 -10 -9 44 -43 70 -43 12 0 29 -7
38 -16 9 -9 25 -14 35 -11 11 3 18 1 15 -3 -9 -14 25 -27 88 -34 59 -6 74 3
35 22 l-23 11 23 0 c12 1 22 -3 22 -7 0 -4 20 -18 45 -30 34 -16 64 -22 117
-22 49 0 74 -4 82 -14 14 -18 76 -32 76 -17 0 14 77 15 85 1 3 -5 37 -10 75
-10 58 0 70 3 75 19 10 33 -5 51 -41 51 -24 0 -34 5 -34 15 0 12 -10 15 -44
14 -39 -2 -48 1 -77 32 -29 31 -32 32 -39 15 -6 -19 -7 -19 -29 3 -17 17 -20
25 -11 31 9 6 6 14 -11 31 -22 22 -23 22 -29 3 -7 -17 -10 -16 -40 16 -22 23
-40 34 -54 32 -17 -3 -19 -1 -9 9 15 15 43 21 43 9 0 -4 14 5 30 20 17 15 30
36 30 45 0 9 13 30 29 46 30 29 51 37 51 19 0 -5 18 -10 40 -10 26 0 38 4 36
13 -1 6 -1 9 1 5 3 -5 40 -8 84 -8 44 0 79 -4 79 -10 0 -6 130 -8 360 -4 319
4 360 3 360 -11 0 -11 11 -15 40 -15 29 0 40 4 40 15 0 12 16 15 80 15 44 0
80 4 80 9 0 7 -83 15 -300 27 -41 2 -97 8 -125 14 -27 5 -108 12 -180 15 -71
3 -146 10 -165 15 -19 5 -93 14 -165 19 -114 9 -320 30 -455 46 -117 14 -246
26 -360 35 -216 17 -349 28 -535 44 -99 9 -202 17 -230 19 -27 3 -84 -3 -125
-12z m2158 -208 c-16 -2 -40 -2 -55 0 -16 2 -3 4 27 4 30 0 43 -2 28 -4z
m-1121 -329 c-3 -3 -12 -4 -19 -1 -8 3 -5 6 6 6 11 1 17 -2 13 -5z"/>
<path d="M6880 5080 c0 -5 18 -10 40 -10 22 0 40 5 40 10 0 6 -18 10 -40 10
-22 0 -40 -4 -40 -10z"/>
<path d="M7120 5065 c0 -6 14 -11 33 -10 17 0 32 5 32 10 0 5 -15 10 -32 10
-19 1 -33 -4 -33 -10z"/>
<path d="M7280 5060 c0 -5 -19 -11 -42 -12 l-43 -1 38 -4 c21 -3 44 0 50 5 7
5 26 7 42 4 17 -2 66 -5 110 -6 l80 -3 -77 4 c-43 2 -78 8 -78 13 0 6 -18 10
-40 10 -22 0 -40 -4 -40 -10z"/>
<path d="M7556 5025 c4 -9 15 -20 25 -26 15 -7 19 -6 19 6 0 11 11 15 41 15
24 0 38 4 34 10 -3 6 -33 10 -65 10 -49 0 -58 -3 -54 -15z"/>
<path d="M7760 5000 c0 -5 18 -10 40 -10 22 0 40 5 40 10 0 6 -18 10 -40 10
-22 0 -40 -4 -40 -10z"/>
<path d="M8164 4982 c3 -5 18 -8 33 -7 15 1 34 -3 41 -8 9 -7 11 -6 6 7 -4 11
-18 16 -46 16 -21 0 -37 -4 -34 -8z"/>
<path d="M8880 4899 c0 -15 10 -18 80 -18 44 0 80 4 80 9 0 5 17 11 38 13 20
2 5 2 -35 0 -40 -3 -78 -1 -85 3 -7 5 -28 9 -45 9 -25 1 -33 -3 -33 -16z"/>
<path d="M9158 4883 c23 -2 59 -2 80 0 20 2 1 4 -43 4 -44 0 -61 -2 -37 -4z"/>
<path d="M9360 4870 c0 -5 18 -10 41 -10 24 0 38 4 34 10 -3 6 -22 10 -41 10
-19 0 -34 -4 -34 -10z"/>
<path d="M9680 4832 c0 -10 66 -9 76 1 4 4 -11 7 -34 7 -23 0 -42 -4 -42 -8z"/>
<path d="M9924 4823 c10 -10 76 -11 76 -1 0 4 -19 8 -42 8 -23 0 -38 -3 -34
-7z"/>
<path d="M12960 4812 c0 -10 66 -9 76 1 4 4 -11 7 -34 7 -23 0 -42 -4 -42 -8z"/>
<path d="M10160 4790 c0 -6 33 -10 80 -10 47 0 80 4 80 10 0 6 -33 10 -80 10
-47 0 -80 -4 -80 -10z"/>
<path d="M11178 4793 c7 -3 16 -2 19 1 4 3 -2 6 -13 5 -11 0 -14 -3 -6 -6z"/>
<path d="M10643 4753 c42 -2 77 -7 77 -11 0 -4 33 -8 73 -9 39 -1 86 -4 102
-6 17 -2 21 -2 10 0 -11 3 -22 9 -25 13 -3 4 -75 10 -160 13 -85 2 -120 2 -77
0z"/>
<path d="M10960 4716 c0 -12 11 -16 41 -16 52 0 48 24 -4 28 -28 2 -37 -1 -37
-12z"/>
<path d="M11055 4710 c3 -5 19 -10 35 -10 16 0 32 5 35 10 4 6 -10 10 -35 10
-25 0 -39 -4 -35 -10z"/>
<path d="M11848 4713 c6 -2 18 -2 25 0 6 3 1 5 -13 5 -14 0 -19 -2 -12 -5z"/>
<path d="M12043 4713 c9 -2 23 -2 30 0 6 3 -1 5 -18 5 -16 0 -22 -2 -12 -5z"/>
<path d="M12436 4712 c-8 -13 55 -22 139 -21 l70 1 -55 8 c-126 18 -149 20
-154 12z"/>
<path d="M5555 4700 c28 -12 45 -12 45 0 0 6 -15 10 -32 9 -28 0 -30 -2 -13
-9z"/>
<path d="M12178 4703 c12 -2 32 -2 45 0 12 2 2 4 -23 4 -25 0 -35 -2 -22 -4z"/>
<path d="M11140 4680 c0 -5 9 -10 19 -10 11 0 23 5 26 10 4 6 -5 10 -19 10
-14 0 -26 -4 -26 -10z"/>
<path d="M11210 4670 c13 -9 13 -11 0 -20 -11 -7 -8 -9 15 -8 17 1 44 -2 60
-6 18 -4 8 4 -24 19 -55 26 -78 32 -51 15z"/>
<path d="M6435 4652 c37 -4 38 -5 15 -13 -17 -6 -8 -7 25 -3 28 3 76 6 108 5
31 0 57 4 57 9 0 6 -48 9 -122 8 -68 -1 -105 -3 -83 -6z"/>
<path d="M6258 4633 c12 -2 32 -2 45 0 12 2 2 4 -23 4 -25 0 -35 -2 -22 -4z"/>
<path d="M6088 4623 c6 -2 18 -2 25 0 6 3 1 5 -13 5 -14 0 -19 -2 -12 -5z"/>
<path d="M11328 4613 c6 -2 18 -2 25 0 6 3 1 5 -13 5 -14 0 -19 -2 -12 -5z"/>
<path d="M6893 4543 c9 -2 23 -2 30 0 6 3 -1 5 -18 5 -16 0 -22 -2 -12 -5z"/>
<path d="M7163 4543 c9 -2 23 -2 30 0 6 3 -1 5 -18 5 -16 0 -22 -2 -12 -5z"/>
<path d="M7058 4533 c12 -2 32 -2 45 0 12 2 2 4 -23 4 -25 0 -35 -2 -22 -4z"/>
<path d="M7260 4530 c0 -5 5 -10 10 -10 6 0 10 5 10 10 0 6 -4 10 -10 10 -5 0
-10 -4 -10 -10z"/>
<path d="M8098 4493 c12 -2 32 -2 45 0 12 2 2 4 -23 4 -25 0 -35 -2 -22 -4z"/>
<path d="M7768 4473 c7 -3 16 -2 19 1 4 3 -2 6 -13 5 -11 0 -14 -3 -6 -6z"/>
<path d="M7858 4473 c12 -2 32 -2 45 0 12 2 2 4 -23 4 -25 0 -35 -2 -22 -4z"/>
<path d="M7688 4463 c7 -3 16 -2 19 1 4 3 -2 6 -13 5 -11 0 -14 -3 -6 -6z"/>
<path d="M7920 4450 c0 -13 50 -13 70 0 11 7 4 10 -27 10 -24 0 -43 -4 -43
-10z"/>
<path d="M8108 4443 c12 -2 30 -2 40 0 9 3 -1 5 -23 4 -22 0 -30 -2 -17 -4z"/>
<path d="M8408 4393 c6 -2 18 -2 25 0 6 3 1 5 -13 5 -14 0 -19 -2 -12 -5z"/>
<path d="M8768 4393 c6 -2 18 -2 25 0 6 3 1 5 -13 5 -14 0 -19 -2 -12 -5z"/>
<path d="M8298 4383 c7 -3 16 -2 19 1 4 3 -2 6 -13 5 -11 0 -14 -3 -6 -6z"/>
<path d="M8498 4383 c12 -2 32 -2 45 0 12 2 2 4 -23 4 -25 0 -35 -2 -22 -4z"/>
<path d="M8603 4383 c9 -2 23 -2 30 0 6 3 -1 5 -18 5 -16 0 -22 -2 -12 -5z"/>
<path d="M9633 4313 c9 -2 25 -2 35 0 9 3 1 5 -18 5 -19 0 -27 -2 -17 -5z"/>
<path d="M9408 4303 c6 -2 18 -2 25 0 6 3 1 5 -13 5 -14 0 -19 -2 -12 -5z"/>
<path d="M9538 4283 c12 -2 32 -2 45 0 12 2 2 4 -23 4 -25 0 -35 -2 -22 -4z"/>
<path d="M10413 4233 c9 -2 23 -2 30 0 6 3 -1 5 -18 5 -16 0 -22 -2 -12 -5z"/>
<path d="M10173 4223 c9 -2 25 -2 35 0 9 3 1 5 -18 5 -19 0 -27 -2 -17 -5z"/>
<path d="M10333 4213 c9 -2 25 -2 35 0 9 3 1 5 -18 5 -19 0 -27 -2 -17 -5z"/>
<path d="M10440 4216 c0 -2 9 -6 20 -9 11 -3 20 -1 20 4 0 5 -9 9 -20 9 -11 0
-20 -2 -20 -4z"/>
<path d="M10378 4183 c7 -3 16 -2 19 1 4 3 -2 6 -13 5 -11 0 -14 -3 -6 -6z"/>
<path d="M10949 4147 c41 -5 81 -5 92 -1 12 6 -14 9 -74 10 l-92 1 74 -10z"/>
<path d="M11167 4153 c18 -2 50 -2 70 0 21 2 7 4 -32 4 -38 0 -55 -2 -38 -4z"/>
<path d="M11083 4143 c9 -2 23 -2 30 0 6 3 -1 5 -18 5 -16 0 -22 -2 -12 -5z"/>
<path d="M11258 4133 c7 -3 16 -2 19 1 4 3 -2 6 -13 5 -11 0 -14 -3 -6 -6z"/>
<path d="M11133 4123 c9 -2 23 -2 30 0 6 3 -1 5 -18 5 -16 0 -22 -2 -12 -5z"/>
<path d="M12458 4123 c7 -3 16 -2 19 1 4 3 -2 6 -13 5 -11 0 -14 -3 -6 -6z"/>
<path d="M12493 4113 c-25 -9 -12 -18 27 -19 22 -1 40 2 40 7 0 5 -6 9 -14 9
-8 0 -20 2 -28 4 -7 3 -19 2 -25 -1z"/>
<path d="M12360 4090 c0 -5 9 -10 20 -10 11 0 20 5 20 10 0 6 -9 10 -20 10
-11 0 -20 -4 -20 -10z"/>
<path d="M12433 4083 c9 -2 23 -2 30 0 6 3 -1 5 -18 5 -16 0 -22 -2 -12 -5z"/>
<path d="M11827 4067 c62 -5 144 -5 185 0 61 7 42 8 -112 8 -183 0 -184 0 -73
-8z"/>
<path d="M12140 4070 c0 -5 -13 -10 -30 -10 -16 0 -30 -4 -30 -10 0 -13 16
-13 57 2 34 12 44 28 18 28 -8 0 -15 -4 -15 -10z"/>
<path d="M12650 4049 c0 -5 9 -9 20 -9 11 0 20 2 20 4 0 2 -9 6 -20 9 -11 3
-20 1 -20 -4z"/>
<path d="M12258 4043 c12 -2 32 -2 45 0 12 2 2 4 -23 4 -25 0 -35 -2 -22 -4z"/>
<path d="M12599 4032 c-49 -4 -61 -36 -15 -38 17 -1 51 -5 76 -9 31 -4 41 -3
31 3 -12 8 -11 11 5 15 10 2 1 3 -21 1 -22 -1 -34 -1 -27 2 6 3 12 9 12 14 0
12 -20 16 -61 12z"/>
<path d="M12740 4004 c0 -8 11 -14 25 -14 14 0 25 4 25 9 0 5 -11 11 -25 13
-17 4 -25 1 -25 -8z"/>
<path d="M12800 3980 c0 -5 -10 -11 -22 -13 -13 -2 6 -5 41 -6 35 0 62 1 60 3
-10 10 -79 24 -79 16z"/>
<path d="M12888 3943 c6 -2 18 -2 25 0 6 3 1 5 -13 5 -14 0 -19 -2 -12 -5z"/>
</g>
</svg>
